<svg id="Layer_1" data-name="Layer 1" xmlns="http://www.w3.org/2000/svg" viewBox="0 0 700 700"><defs><style>.cls-1{fill:#771b7d;}.cls-2,.cls-6,.cls-7{fill:none;stroke-linecap:round;stroke-linejoin:round;}.cls-2,.cls-7{stroke:#d8c6dc;}.cls-2{stroke-width:4.18px;}.cls-3{fill:#fdfdfd;}.cls-4{fill:#d7c4db;}.cls-5{fill:#d3bfd8;}.cls-6{stroke:#fff;stroke-width:3.14px;}.cls-7{stroke-width:2.61px;}</style></defs><title>Logo_1</title><path class="cls-1" d="M280.25,374.47c-.95-2.86-2.36-5.56-2.67-8.65-.46-4.58-2.24-8.86-3.48-13.25-2-7.11-5.43-13.64-9-20.07a59,59,0,0,0-4.19-5.46c-10.63-11-24.64-15.34-38.85-19.2a1.88,1.88,0,0,0-2.07.35c-.64.81,0,1.62.37,2.31,1,1.7,2.1,3.36,3.15,5,4.51,8,7.45,16.67,10,25.46a3.41,3.41,0,0,1-.86,3.78c-1.28,1.1-2.55,1-4.08.44-5.42-1.92-10.88-3.62-16.77-3.28-2.86.16-5.45,1.53-8.28,1.58a35,35,0,0,0-12.09,3c-8,3.19-15.83,7-22.68,12.49a77.65,77.65,0,0,0-9.89,8.66c-6,6.27-11.44,13.12-18.49,18.32a37.88,37.88,0,0,1-6.56,4.1c-.72.41-1.68.49-1.83,1.45-.17,1.14.79,1.58,1.57,2.1,3.69,2.41,8,3.53,12,5.22,7.1,3,14.64,3.58,22.35,3a105.82,105.82,0,0,0,20.24-3.67c6.4-1.74,12.88-3.33,19.12-5.71,2-.77,4.18-1.28,6.28-1.88,1-.28,2.08-.89,2.94,0s-.08,1.89-.48,2.82c-.84,1.94-2.35,3.43-3.4,5.23a28,28,0,0,1-1.42,2.42c-2.55,4.54-5.23,9.06-6.33,14.21-.88,4.17.24,5.34,4.4,5.39,12,.16,22.9-3.67,33.66-8.33,7.41-3.21,13.95-7.93,21-11.78,1.38-.92,2.73-1.91,4.15-2.75,5.2-3.09,10.82-5.34,16.72-2.88,12.39,5.16,19.21,15.32,23,27.68a35.14,35.14,0,0,1,.24,18.86A134.56,134.56,0,0,1,298.88,467a167.66,167.66,0,0,1-13.41,23.66A71.35,71.35,0,0,1,272.12,506c-12.43,10.25-27.32,15.4-42.75,19.16-1.93.47-3.87.89-5.82,1.23a1.87,1.87,0,0,1-2.16-.94,1.81,1.81,0,0,1,.66-2.22c7.72-7.35,14.75-15.43,23.51-21.68A37,37,0,0,1,261,495.15c.88-.15,2.16.36,2.56-.64.48-1.21-.88-1.75-1.59-2.42-2.87-2.71-2.93-4.5-.25-7.4a151.66,151.66,0,0,0,12.31-15.07c5.63-7.93,11.19-15.91,12.12-26.1a24.06,24.06,0,0,0-4-16.6c-3.64-4.9-8.94-6.75-14.62-7.44-5.15-.63-9.82.77-12.72,5.55-1.71,2.82-1.26,6-1.12,9.15.36,8,9.23,10.54,15.31,7.82a4.86,4.86,0,0,0,2.18-6.92c-.37-.65-.68-1.35-1.53-1.41-1.07-.07-.95.89-1.24,1.51-1.76,3.74-4.24,4.32-7.46,1.83a13,13,0,0,1-2.84-2.91,4.57,4.57,0,0,1-.13-5.31,9,9,0,0,1,12.78-3.08c8.25,6.29,10.7,18.3,5.51,27a18.61,18.61,0,0,1-2.64,5.93c-.61,1.3-1,3-3,2.51-1.65-.41-1.74-1.88-1.76-3.28a8.17,8.17,0,0,0-.07-1.26,7,7,0,0,0-7.2-5.76c-1.41.08-2.91.28-3.16,2s1.18,1.91,2.41,2.3c3,.94,5.12,3.35,4.82,5.83a30,30,0,0,1-7.29,16.36c-1.66,1.9-4.12,1.13-4.8-1.35-.28-1-.15-2.08-.39-3.11-.27-1.18,0-2.69-1.68-3s-2.24,1.14-2.77,2.39a81,81,0,0,1-13.88,30.19,26.32,26.32,0,0,1-3.12,3.9c-2.26,2.85-4.26,6-7,8.36-.72.63-1.78,1.57-2.78.75-.75-.62-.46-1.85-.12-2.67a50.53,50.53,0,0,0,2.73-8c2.51-10.71,0-16.05-8.12-21.51a41,41,0,0,0-6.79-3.23,1.89,1.89,0,0,0-2.55.48c-.58.93.23,1.54.79,2.14a9,9,0,0,1,1.76,2.19c1.22,1.43,2.54,2.79,3.65,4.3,3.32,4.53,6.23,9.33,5.62,15.22-.93,9-7.66,18.28-16.68,20.84-8.19,2.32-16.22,1-24.37-1.1-13-3.41-22.73-11.1-30.5-21.69-3.69-4.81-5.9-10.33-7.55-16.08-2.37-8.27-1.85-16.36,2.38-23.93,5.12-9.17,13.17-14.16,23.41-16.07,5.32-1,10.62-.48,15.93-.6.88,0,2.18.26,2.29-1s-1.08-1.35-2-1.56c-2.16-.49-4.37-.2-6.55-.57-11.48-2-22.19-.21-31.72,6.89-6.42,5-9.72,11.7-11.89,19.39A49.41,49.41,0,0,0,137,509.4a46.89,46.89,0,0,0,15.78,16,76.07,76.07,0,0,0,26.92,10.51,153.66,153.66,0,0,0,24.64,2.47A254.45,254.45,0,0,0,235.15,537c5.42-.61,8.75,2.1,11.07,6.51a60.14,60.14,0,0,1,2.7,6.34c2.13,5.47,4.56,10.79,8.22,15.41s5.61,4.27,8.78-.46a10.11,10.11,0,0,1,1-1.25c1.51-1.62,2.53-4.56,5.21-3.71s2.94,3.89,3.12,6.34c.89,12.37.07,24.72-1,37a34.81,34.81,0,0,1-2.08,9.49c-1.7,4.47-1.65,9-1.16,13.63.31,2.94,2.34,4.21,5.33,4.15a7.94,7.94,0,0,0,5-2.32c1-.8,1.93-2,3.28-1.16s.73,2.31.52,3.46c-.46,2.57-1.33,5.08-1.67,7.66-1.39,10.37-2.7,20.76-3.34,31.21h2.52a3.73,3.73,0,0,1,1.75-3.14c3.54-2.93,7.19-5.77,10.52-8.94,8.07-7.67,15.15-16.07,20-26.27a56.31,56.31,0,0,0,5.55-18.14c1.33-12.41-3.54-23.26-9.75-33.36A96.5,96.5,0,0,0,283.41,551c-4.19-2.75-8.28-5.65-12.62-8.15-4.56-2.63-8.88-5.75-14.11-7.1a3.22,3.22,0,0,1-2.55-2.9c-.09-1.4.92-2.1,2-2.5,9.87-3.59,17.91-10.23,26.4-16.07,9.36-6.44,18.12-13.73,28.25-19.07,4.34-2.29,8.68-4.67,13.33-6.09,10.38-3.17,20.78-3.44,30.86,1.47a1.89,1.89,0,0,0,2.32-.14c1.09-3.79,0-6.94-2.79-9.62a45.32,45.32,0,0,1-3.3-3.35c-1.3-1.54-.83-2.78,1.16-2.94,6-.48,11.64.43,16.62,4.09h0A7.18,7.18,0,0,1,371.4,481a1.6,1.6,0,0,0,2,.52c.89-.27.95-1,1-1.77a10.72,10.72,0,0,0-.63-2.74,5.54,5.54,0,0,1,4.59-6.58,13.06,13.06,0,0,1,4.37.26,60.86,60.86,0,0,0,14,1.55c3.08,0,4-1.06,3.4-4.07-.29-1.54-.92-3-1.29-4.53-.66-2.74,1.08-4.84,3.89-4.56,3.73.36,6.63,2.43,9.26,4.84,2.14,2,4.7,3.82,5.15,6.92a14.9,14.9,0,0,0,1.62,4.68c2.61.82,2.78-1,2.87-2.74.23-4.54-1-8.91-1.74-13.33-.42-2.33-.06-4.53,1.85-6s4-.71,5.92.27c11.21,5.65,20.08,14.11,28.37,23.33a21.18,21.18,0,0,1,5.49,16.42c-.35,4.29-.72,8.76-2.87,12.7-2.37,4.35-4.07,9.1-9,11.63a13.22,13.22,0,0,1-14.84-1.59c-2-1.86-2.4-4.28-1.07-6.2,1.57-2.28,3.48-1.87,5.46-.62a3.6,3.6,0,0,0,.56.29,2,2,0,0,0,2.55-.47,1.86,1.86,0,0,0-.11-2.35,8.88,8.88,0,0,0-3.75-3.18c-3.9-1.54-7.37-.37-10.85,1.23a14.64,14.64,0,0,1-2.06,3.12,7.2,7.2,0,0,0-2.13,6.31c.23,2.09.12,4.19.32,6.27.54,5.47,3.32,9.48,8,12.33,3.84,2.32,8.11,2.77,12.35,3,4.89.25,9.72-.08,14.35-2.3a18.48,18.48,0,0,0,6.67-5c.72-.88,1.51-2.29,2.67-1.69s.27,2.15,0,3.1c-1.15,3.45-2.36,6.91-4.68,9.82-4.87,6.7-10.4,12.62-18.16,16.07-2.51,1.12-5.2,1.63-7.74,2.63-1.57.62-3.38,1.1-3.5,3.14s1.39,3,2.92,3.73a103.21,103.21,0,0,0,10.21,4.9c1,.36,2.22.71,2.08,2s-1.5,1.25-2.47,1.51c-7,1.86-14.27,2.2-21.48,2.66-1.24.08-2.61-.27-3.29,1.2a3.82,3.82,0,0,0,.58,3.86,42.16,42.16,0,0,0,5.39,6.14c.77.79,2.05,1.54,1.52,2.85s-1.92,1-3.06,1.12c-5.51.4-10.83-.86-16.15-2-1.46-.31-3-.9-4.2.21s-.3,2.54.1,3.81c1.2,3.85-.18,5.32-4.24,4.48-3.29-.68-6.55-1.54-9.75-2.52-6.52-2-13-4.12-18-9.26-7.61-7.81-5.52-19.87,4.38-24.42,6.47-3,8.78-1.83,10.27,5.08.56,2.62,2.15,3.28,4.31,1.79,5.42-3.73,7.58-9.21,5.12-15.4-1.46-3.67-1.07-6.39,1.39-9.13,2.26-3.6,5.49-6.28,8.62-9,4-3.54,8.05-7,10.23-12.11.91-2.14,4.16-12.21,4-15.26-.15-2.1-.15-4.19-.16-6.28,0-8.87-6.73-15.3-16.13-14.86-2.74.13-5.58,2.27-6.2,4.55-.27,1-.68,2.17.31,2.93,1.22.92,1.9-.34,2.58-1a3.92,3.92,0,0,1,4.85-1,7.67,7.67,0,0,1,3.73,8.28c-2,7.08-5.48,9.79-13.32,10.72-4.9.58-7.61-1.2-9.09-5.85-1.82-5.7-6.25-7.16-11.29-7.84-2.42-.32-3.89,1.65-2.76,3.76a22.47,22.47,0,0,1,1.81,6.29c.72,3.44.28,6.94-2.72,9.45-4.71,4-9,8.38-14.15,11.85a56.29,56.29,0,0,0-12,12.33c-7.69,11.06-8,28.06-.06,39.33,9.67,13.72,23,22.2,38.62,27.54,4.4,1.51,6,3.77,5.4,8.43-1.09,9,4.82,15.6,12,18.65,1.49.64,2.81.49,3.49-1.43,3-8.44,11.14-15.51,20-14.68a7.81,7.81,0,0,0,7.09-3.3c4.08-5.19,9.44-8.94,15-12.14,13.32-7.62,26.12-15.77,35.54-28.25,1.21-1.6,2.64-1.57,3.29.4,2.38,7.15,6.6,13.88,4.78,22-.52,2.33.86,3.13,3,2a16.36,16.36,0,0,0,6-5.33c1.67-2.5,3.06-2.66,5-.52,6.75,7.39,15.3,6.08,21.19-.13,7.2-7.59,9.88-17.48,12.23-27.38a1.49,1.49,0,0,0-.82-1.86c-.83-.31-1.46.3-1.84.89-1.79,2.81-3.28,5.83-5.36,8.46a13.44,13.44,0,0,1-12.77,4.88,20.57,20.57,0,0,1-15.63-11.46c-1.81-3.59-2.06-7.38-2.76-11.18a141.27,141.27,0,0,1-2.13-30.68,31.85,31.85,0,0,1,.65-6.24c.62-2.6,2.5-3.09,4.36-1.2s3.33,3.76,4.91,5.72c.59.73,1,1.85,2.11,1.37,1-.41.51-1.44.43-2.24-.68-7.33-.68-7.32,6.72-7.28,1.57,0,3.15,0,4.72,0a10.52,10.52,0,0,0,7.17-2.72,42.87,42.87,0,0,1,5.58-4,11.1,11.1,0,0,0-10.28-19.56c-5.13,2.23-8.09,9.07-6.16,14.23,1.38,3.7.29,5.34-3.69,5.45a14.41,14.41,0,0,1-3.43-.26c-8.58-1.88-16.43-13-15.79-20.12a12.09,12.09,0,0,0-2.16-8c-1.31-1.92-.86-3.28,1-4.42,3.38-2,6-4.94,8.53-7.85,3.19-3.67,5.77-7.75,5.7-12.89-.07-5.58-6-11-11-10-4.38.84-6.46,4-7.62,7.92-1.06,3.57.43,6.32,3.17,8.57,2.51,2.07,2.47,2.75-.34,4.52a13.37,13.37,0,0,1-9.06,1.8c-11.82-1.56-21.82-7.42-31.56-13.76-2.3-1.5-2-2.8.3-4.51,5.85-4.42,10.76-9.5,10.43-17.56a41.31,41.31,0,0,0-1-6.18c-.23-1.19,0-2.86-1.42-3.23-1.74-.44-2.15,1.35-2.81,2.45-6.32,10.41-15.06,16.75-27.71,16-6-.35-12-1.55-18-2.11-11.42-1.08-22.87-1.32-34.4.62-8.6,1.45-17.08,3-25.22,6-6.94,2.56-14,5-20.22,9.16-3.47,2.32-6.94,4.64-10.44,6.91-.58.38-1.34,1-2,.5s-.45-1.32-.19-2c1.82-5,2.77-10.27,4-15.44a161.4,161.4,0,0,0,4.43-32.3c.47-14.57.21-29.16.09-43.75-.09-11.42-.77-22.85-.62-34.27.17-13.92.3-27.84,2-41.71,1.36-11.31,2.34-22.63,5.51-33.67,2.83-9.85,5.54-19.7,10.36-28.81,4-7.55,8.66-14.6,15.51-19.88s14.47-8.88,23.54-7.15c7.27,1.39,12.88,5.75,18.17,10.59a78.82,78.82,0,0,0,14.08,11.23c3.78,2.41,9.63,4.49,12.91.74,1.33-2,.89-4.27.76-6.43-.21-3.66-.67-7.31-.91-11-.09-1.44-.13-3.08,1.53-3.81s2.87.24,4.2,1.25c10.37,7.81,14.39,19.29,17.65,31,3.12,11.26,4.89,22.85,9.61,33.72a39.56,39.56,0,0,0,11.57,15.34c5.08,4.12,8.51,4.21,11.91.66,2.79-2.92,4.15-6.75,5.44-10.5.5-1.46.66-2.91,2.62-2.91,2.17,0,2.47,1.64,2.7,3.22.76,5.27,1.12,10.57,2.22,15.81,1.64,7.78,2.87,15.68,7,22.63,4.61,7.67,9,15.37,8,24.82a3,3,0,0,0,.2,1.29c.63,1.37,1.5,2.59,3.11,2.8s2.73-.93,3.4-2.3A27.16,27.16,0,0,0,523,337c3.24-11.58,6.38-23.14,7.31-35.24,1.41-18.29,1.84-36.41-4.49-54-3.91-10.9-9.57-20.6-18.45-28.27a134.37,134.37,0,0,0-16.27-11.67c-9.91-6-20.83-9.86-31.25-14.78,0-.1-.08-.19-.27-.28-3.75-1.29-7.85-1.55-11.22-3.9a1.93,1.93,0,0,0-1.52-.17l-.76-.35c-8.53-2.86-17.13-5.43-26.21-6.4.28-.71.56-.86.86-1,8.39-2.52,16.93-1.76,25.47-1.21,5.11.33,10,1.83,15.07,2.37,6.88.74,13,3.63,19.25,6.1a121.91,121.91,0,0,1,15.65,6.94c4.55,2.54,9.28,4.82,13.62,7.68,7.93,5.24,15.86,10.46,23,16.89a109.19,109.19,0,0,1,21,25.2c3.57,6,5.79,12.8,10.45,18.19.72.83,1.21,2.44,2.51,1.83s.81-2.25.41-3.38c-1.57-4.42-2.77-9-4.5-13.34-4-10.16-9.94-19-17-27.22-4.7-5.53-10.2-10.21-15.55-15.06-29-22.2-61.47-34.84-98.54-34.34a10.8,10.8,0,0,1,5.09-2.26,147.47,147.47,0,0,1,20.39-3.3,227.48,227.48,0,0,1,34.21-1c7,.38,14,.67,20.88,2.21s14,3.47,21,4.94c7.41,1.56,14.37,4.35,21.62,6.27,3.64,1,3.62,2.75,1.35,5.06-6.48,6.61-3.22,18.33,5.66,21,3.55,1.06,3.5,1.31,2.26,5-1.84,5.4-2.38,10.79,1.22,15.87,2.68,3.78,6.59,5,10.83,5.48,5.44.67,10.7.36,15-3.7,3.1-2.95,3.08-3,6.49-.48a306.69,306.69,0,0,0,29,26.45c3.53,3.46,7.08,6.9,9.44,11.34h0c1.71,2.72,3.61,5.32,5.08,8.18,4.91,9.62,9,19.55,10.47,30.33A40.83,40.83,0,0,1,649,324.5c-2.74,6.68-7.37,11.83-12.53,16.63a9,9,0,0,1-1.82,1.2c-6.31,4.48-12.71,8.37-20.81,9.3-8.27.95-15.65-4.26-18.72-10.29-1-1.93-1.9-3.89-2.78-5.87a3.73,3.73,0,0,1,1.62-4.84c1.55-.78,2.72,0,4,.27,3.78.75,7.24,1.06,10.32-2.37a30.54,30.54,0,0,0,6.93-13.78,20.54,20.54,0,0,0-3-16.43,9,9,0,0,1-1.4-4.12,76.52,76.52,0,0,0-1.54-9.25c-1.52-7.36-9.25-15-19.24-8.62-4.69,3-6,9.69-2.86,13.64,1.41,1.76,2.15,1.14,2.88-.47s.48-3.29.63-5c.32-3.6,2.61-5.35,6.24-4.89,2.94.37,5.46,3.3,4.63,5.93-1.37,4.37-3.11,8.52-7,11.56s-7.66,5.76-11,9.31c-5,5.36-5.24,11.35-.19,16.56a13,13,0,0,1,1.62,1.92c1.43,2.3,1.06,4.86,1,7.36,0,4.33.1,8.86,2.06,12.6,3.89,7.44,10.63,11.38,18.92,12.28,10.48,1.13,20.15-1.93,29.14-7,11.42-6.38,18.61-16.15,22-28.83,1.56-5.78,1.52-11.59,1.57-17.45.09-9.94,1.15-19.62,6.82-28.26a22.89,22.89,0,0,0,2.72-6.31c3.85-13.68,3.95-27.19-1.75-40.51a72.19,72.19,0,0,0-19.79-27.06c-4.41-3.75-8.55-8.05-14.46-9.72-4.08-1.15-4.47-2.65-1.9-6a10.14,10.14,0,0,0-.1-12.71c-6.55-7.68-15.4-8.65-24.6-7.85-4.88.43-9.68,1.7-14.53,2.55-1,.18-2.22.26-2.77-.9s.42-1.77,1.05-2.42a4.39,4.39,0,0,1,2-1.46c2.76-.47,5-2.17,7.52-3.1,4.89-1.79,6.46-4.39,5.59-8.78a10.23,10.23,0,0,0-3.88-6.28,45.83,45.83,0,0,0-12.12-7.07c-10.91-3.91-19.62,1.19-21.63,12.37-1.38,7.63-.28,15,.91,22.46.47,2.94-.69,4.47-3.42,4a32.12,32.12,0,0,1-5.73-1.57c-6.61-2.52-13-5.63-19.95-7.24-7.43-1.73-14.77-3.74-22.39-4.7-5.8-.73-11.48-2.32-17.31-3.08-1.07-.14-2.39-.39-2.61-1.86s.84-1.92,1.86-2.57a51.42,51.42,0,0,0,10.31-9.15c6.62-7.25,11-16,16.29-24.1,5.13-7.8,11.78-12.95,21.54-13a12.18,12.18,0,0,0,6.4-2.24c1.39-.86,2.58-2,2.24-3.8a3.88,3.88,0,0,0-3.17-3.14,24.34,24.34,0,0,0-6.2-.62c-6.24.3-12,2.83-18.2,3.34-7.82.66-10.05,1-12.42-7.36a6.3,6.3,0,0,0-.69-1.57c-2.48-4.05-4.12-4.43-7.69-1.58a23.37,23.37,0,0,0-6.21,7,17.72,17.72,0,0,1-3.82,5.32c-2.47,2.1-4.83,1.64-5.66-1.46a54.94,54.94,0,0,1-2.16-11.71c-.42-9.43-1-18.82-4.59-27.74-.49-1.23-.87-2.52-2.44-2.4s-1.85,1.33-2.48,2.5c-2.86,5.33-2.4,11.44-4.2,17-.52,1.59.08,4.5-2.6,4.28-2.3-.18-2.4-2.83-3-4.68a7.47,7.47,0,0,1-.09-.94c-1.29-7.19-.57-14.44-.6-21.67a33.65,33.65,0,0,0-4.71-17.32c-1.7-2.89-4.25-4-6.12-2.5-1.44,1.15-2.8,2.4-3.23,4.47-1,5-2.79,9.89-1.34,15.14A3.58,3.58,0,0,1,452.65,62c-1.58.94-2.78-.25-3.79-1.36a22.1,22.1,0,0,1-3.22-4.59,51.09,51.09,0,0,0-22.22-22.23l-.07,0a43.26,43.26,0,0,0-19.16-4.17H402a46.69,46.69,0,0,0-12.91,1.65c-1.14.33-2.34.5-3.52.72-6.23,1.18-8,4.87-5.23,10.51.38.76.94,1.39,1.37,2.1,2.46,4.14.79,7.26-4,7.44a11.86,11.86,0,0,1-2.83,0c-4.17-.87-8.31-.5-12.49,0-5.17.67-10,2-14.27,5.18-2.76,2.1-3.07,4.89-2.48,7.9.53,2.68,2.67,3.28,5.09,3.87,7.63,1.88,15.43,2.9,23,4.89a36.47,36.47,0,0,1,11.14,4.91c1.44,1,3.39,2.13,2.17,4.56-1.25,1.75-3.25,1.6-5,2.1-3.85,1.07-7.9,0-11.75,1.53-6,2.37-10.45,6.48-14.15,11.52-2.73,3.73-1.42,7.92,2.74,9.74a17.63,17.63,0,0,0,7.92,1.57,57,57,0,0,1,10.95.59c5,.76,7.86,3.79,8,8.87a35.88,35.88,0,0,1-.42,7.5,12.2,12.2,0,0,0,.79,7.06c2.57,6.23,8.9,7.93,15.83,7.79a59.18,59.18,0,0,0,11.44-1.79c11.48-2.57,24.35,3,29.88,12,.32.54.69,1.06,1,1.6.69,1.17,1.62,2.38.78,3.78s-2.54,1.27-4,1.12c-1.77-.18-3.53-.43-5.32-.53-9.19-.5-17.51,3.07-25.91,5.85-7.85,2.61-15.15,6.72-22.36,10.77a207.2,207.2,0,0,0-26.67,17.21,3.22,3.22,0,0,1-3.27.93c2.94-6.09,3.75-12.61,4.5-19.15,1.57-13.55-4.66-24.39-17.95-28.78a17.31,17.31,0,0,0-8.71-.38c-4.38.82-5.47,4-2.52,7.5a23.57,23.57,0,0,1,4.6,8.07,66.15,66.15,0,0,1,2.89,15.93c1,17.63-2.91,34.39-9.74,50.53a23.07,23.07,0,0,1-3.24,5.74c-.52.63-1.12,1.42-2.09,1-.79-.33-.72-1.21-.77-1.94-.55-9.48-2.81-18.61-5.46-27.68-1.32-4.53-2.88-9-4.2-13.51a210.86,210.86,0,0,0-13.21-33,161.4,161.4,0,0,0-17-27.89c-7.61-9.92-15.75-19.38-26.22-26.49a8.37,8.37,0,0,1-1.37-.77c-8.46-6-17.11-11.53-26.88-15.29-10.62-4.09-21.46-7.13-32.8-7.94a99.79,99.79,0,0,0-38.39,4.94,90.83,90.83,0,0,0-13.73,5.3A122.11,122.11,0,0,0,133,96c-3.85,2.61-3.9,3.56-.23,6.61,2.86,2.37,6.3,3.75,9.3,5.84,6.49,4.54,14,6.52,21.43,8.65,5.09,1.47,10.3,2.66,15.52,3.73s10.62,2.32,16.13,2.19c4.4-.1,8.81-.07,13.22,0,1.08,0,2.21.14,2.43,1.48s-.74,1.93-1.78,2.22c-1.82.51-3.55,1.27-5.38,1.75a35.25,35.25,0,0,0-11.19,4.84c-3.45,2.37-6,6.74-2.74,11.05.88,1.15,1.61,2.41,2.58,3.52,3.83,4.36,8.75,7,13.95,9.37a70.72,70.72,0,0,0,19.81,5.8c7.58,1,15,2.54,22.57,3.74,7.13,1.14,14,3.47,20.88,5.53a49.22,49.22,0,0,1,14.75,7.31,16.86,16.86,0,0,1,5,6,3.45,3.45,0,0,1-.16,3.81c-1.31,2.13-2.89,2.52-5.31,2-6.18-1.35-12.26-3.7-18.78-2.43-2.71,1.82-2.11,4.33-1.3,6.76,2.06,6.16,6.08,11,10.9,15.13,7.88,6.79,16.93,12,25.19,18.28,9.32,7.11,13.74,16.59,14.22,28.17.44,10.62-.6,21.17-1.4,31.71-.49,6.5,0,13-.72,19.47a111.58,111.58,0,0,0-.32,16c.54,14.23,2,28.43,1.75,42.7,0,1.8.81,4.84-1,5.08-2.12.28-2.19-2.83-2.73-4.63-2.41-8-4.49-16.19-7.37-24.06a357.06,357.06,0,0,0-21.58-47.84c-7.57-13.94-16.38-27.1-25.45-40.08-8.89-12.72-19.91-23.48-31.31-33.9-6.5-5.94-12.5-12.36-16.83-20.18a12.55,12.55,0,0,1-.33-12.3c2.06-4.15,6-5.12,10.31-5.34,3.34-.18,6.39,1.07,9.62,1.26,1.31.08,3,.27,3.44-1.44s-.81-2.9-2.33-3.62a21.55,21.55,0,0,0-6.12-1.38c-9.1-1.41-16.58,1-21.66,9.18-1.28,2-2.44,4.17-3.8,6.16-2.44,3.57-3.85,3.81-7.54,1.43a25,25,0,0,0-2.36-1.33c-12.48-5.9-25.21-10.89-39.21-12s-27.87-.78-41.46,3c-11.83,3.32-23.33,7.45-34,13.8C58.61,206.93,46.64,215.9,37.2,228c-3,3.9-5.47,8.24-9.2,11.6l1.73,6c3.17.48,5.85-.67,8.26-2.62,1.22-1,2.4-2,3.59-3a32.48,32.48,0,0,0,7-6.2,76.19,76.19,0,0,1,12.71-11.5c7.8-5.9,16.09-11.06,25.35-14.52,4.59-1.72,9-4.06,13.72-5.24a147.45,147.45,0,0,1,16.6-3c13.51-1.76,26.91-1.1,40.31.91,2.22.35,4.5.43,6.63,1.25a6.41,6.41,0,0,0,3.28.68,11.54,11.54,0,0,1,3.42.34c5.28,1.67,10.66,3.07,15.75,5.3,3.92,1.72,8,3.14,11.68,5.33a100.29,100.29,0,0,1,17.39,13.37c1.07,1,2.86,2.13,2,3.48-1.07,1.63-2.55-.12-3.8-.67a4.2,4.2,0,0,0-.9-.33,53.81,53.81,0,0,0-22.09-1.43c-7,1.08-14.06,2.18-20.87,4.38-8.7,2.82-16.82,7-25.12,10.69a4.06,4.06,0,0,1-4.18-.09c-2.88-1.89-6.12-3.27-8.43-6a2.59,2.59,0,0,0-3.09-.95c-1.17.47-1.29,1.59-1.31,2.64a12.8,12.8,0,0,0,5.2,10.91c2.89,2.26,2.81,3.35-.56,4.71-10.31,4.15-21.06,6-32,3.64-8.54-1.84-15.25-6.66-18.57-15.34-1.49-3.91-.77-7.88-.94-11.82s1.56-7.28,4.48-10c4-3.88,8.64-6.68,14.38-6.89,8.26-.31,14.2,4.11,19.39,9.91a2.75,2.75,0,0,1,.66,1.06c.33,1.32.9,3-.4,3.76-1.49.89-2-1-2.81-1.81-.3-.29-.56-.62-.86-.92a10,10,0,0,0-12.7-1.18c-4.34,3-6.32,8.78-4.52,13.29,1.51,3.79,6.64,6.13,11.42,5.22a22.25,22.25,0,0,0,8.69-3.5c6.86-4.83,9.45-13.34,4.34-20.3-4.9-6.67-11.92-10.51-20-11.94-4-.7-8.2-1.17-12.08.47a28.68,28.68,0,0,0-11.49,9.47h0a71.35,71.35,0,0,0-4,9.73c-2,5.43-2.48,10.47.43,15.66.5.88.88,1.88,1.36,2.8,2.4,4.51,1.29,7.27-3.75,8.56a11.43,11.43,0,0,0-4.28,1.78c-1.24,1-3.38,2.11-2.47,3.9,1.12,2.2,3,.36,4.35-.25,6-2.78,12-2.34,17.84.4,6.8,3.18,13.41,6.6,21.39,5.35,6-.93,12-1.3,17.82-3.19,3.39-.67,3.45-.61,3,2.57a5.75,5.75,0,0,1-.33,1.8c-.13.28-.25.56-.36.85-.63,1.78-.81,3.66-1.33,5.48-2.24,7.93-3.44,16-1.76,24.18.84,4.11,2.78,7.86,4.2,11.79,1.76,4.86,3.75,9.77,1,15-.87,1.68-1.94,3.22-2.9,4.84-.42.7-1.22,1.35-.37,2.18a1.92,1.92,0,0,0,2.36,0,14.21,14.21,0,0,0,6.6-6c.95-1.8,2.28-2,3.89-1,2.64,1.73,5.58,2.88,8.3,4.46,12.21,7.06,25,8.76,38.45,4a36.27,36.27,0,0,0,18.28-16.42c4.18-7.39,7-15.39,9.66-23.4a33.42,33.42,0,0,0,1.8-13.6c-.41-4.29-1.89-8-5.48-10.44A76.29,76.29,0,0,0,206,264.3c-1.54-.83-2.71-.54-3.37.94-1.12,2.55-2.3,1.71-3.74.33s-2-3.22-3.74-4.15l-.66-.63c-3.3-2.52-6.85-4.4-11.14-4.47-1.37,0-2.44.33-2.9,1.83-1.1,3.66-1.46,3.79-4.65,1.73A16.79,16.79,0,0,0,164.19,257a51.11,51.11,0,0,0-12.91,3.7c-.8.34-1.57.81-1.64,1.74-.09,1.12,1,1.14,1.68,1.52s2.31.48,2.13,1.9-1.19,1.86-2.43,2.11c-2.65.52-4.29,2.29-5.74,4.46-1.77,2.65-2.06,5.64-2.6,8.62-.17,1-.53,2,.63,2.43s1.74-.39,2.32-1.18c.31-.42.55-.89.87-1.31.94-1.24,2.37-2.26,3.71-1.57s.49,2.25.06,3.42c-2.39,6.59-2.31,13.06.86,19.4a10,10,0,0,0,2,3.53c8.39,9.54,19.52,4.64,24.85-2.66,2-2.8,3.18-6,1.57-9.44-2.06-4.41-8.15-7.12-12.71-5.8-3.92,1.13-7.8,7.39-7.41,11.74.14,1.57,1.48,2.53,1.67,4,.09.72.37,1.52-.28,2.07s-1.39.1-2-.19c-1.88-.84-3.1-2.44-4.46-3.89-1.44-2.31-2.74-4.57-2.9-7.48-.37-7.12,3-12.13,8.47-16.05a41.71,41.71,0,0,1,15.58-6.62c4.85-1.09,9.15.09,13.19,2.18,8.26,4.28,12,11.9,13.78,20.57a36.85,36.85,0,0,1-2.09,21.84c-1.61,3.89-3.55,7.42-7.51,9.35l-3.3,1.87c-2.8,1.86-6,2.41-9.24,2.64a53.05,53.05,0,0,1-33.34-8.24c-6.16-4-10.76-9.11-12.77-16.31a70.09,70.09,0,0,1-2.25-13.87c-.2-6.58,0-13.19,1.58-19.63,1.24-4.94,2.36-10,5.05-14.41.45-.74.82-1.52,1.79-1.56,1.16,0,1.59.81,1.9,1.76a3.75,3.75,0,0,0,2.38,2.6,5.08,5.08,0,0,0,.35-.6c.16-.39.3-.78.42-1.18,3.2-10.79,9.8-17.78,21.18-20.25,4.79-1,9.69-1.75,14.38-3.05,15.86-4.42,30.89-2.75,45.06,5.49,13.74,8,24.19,19.41,32.78,32.64,3.07,4.31,5.66,8.9,8.4,13.42,5,8.22,9,16.9,13.46,25.38,2.08,4,3.75,8.15,5.72,12.15a344.41,344.41,0,0,1,13.42,32c3.13,8.36,5.42,17,7.84,25.65-.19,1.2.47,2.22.77,3.3,1.49,5.39,2.78,10.8,2.71,16.44,0,1.23-.21,2.34-1.46,2.84a2.4,2.4,0,0,1-2.76-.92,13.3,13.3,0,0,0-1.43-1.2h0a7.63,7.63,0,0,1-2.79-2.47,37.45,37.45,0,0,0-6.67-7h0c-3.29-3.65-6.84-7-10.26-10.56a9.38,9.38,0,0,0-3.63-2.4ZM506.8,241.88v0l0,0Z"/><path class="cls-2" d="M278,377.73c-67.94-25.61-115,4.7-115,4.7"/><path class="cls-2" d="M230.42,395.5s32.72-22.93,38.15-20.91"/><path class="cls-2" d="M244,332.26s22,43.38,28.74,43.9"/><path class="cls-2" d="M210.56,355.78s12.34,8.91,23.15,12"/><path class="cls-2" d="M185.48,389.75S206.3,372.51,221,367"/><path class="cls-2" d="M170.84,364.67c2.09,1,15.68,7.32,24.56,5.75"/><path class="cls-3" d="M367.71,541.53c5.49-6.82,12.62-11.58,20.21-15.63,6.46-3.45,12.43-7.65,18.67-11.43,1.39-.84,2.77-2.4,4.5-1.34,1.93,1.18,1.26,3.14.69,4.84-1.82,5.46-5.54,9.43-10,12.9-5.34,4.14-11.63,6.47-17.5,9.59-7.56,4-14.62,8.54-19.09,16.16a31.1,31.1,0,0,0-2.07,3.14c-.59,1.24-1.6,2.16-3,1.64-1.72-.64-1.19-2.17-.95-3.51C360.31,551.54,363.46,546.25,367.71,541.53Z"/><path class="cls-4" d="M656,262.24c0,1.33.12,2.53-1.32,2.68s-1.77-.95-2-2c-.64-3.37-1-6.75-1.89-10.13-1.71-6.2-4.53-11.74-7.56-17.34-6.55-12.1-16.22-21.36-26.43-30.17a185.63,185.63,0,0,0-23.1-16.43,102.58,102.58,0,0,0-15.21-8.27c-1.43-.59-2.67-1.61-4.05-2.32-.94-.48-1.72-1-1.35-2.13.43-1.29,1.62-1.21,2.65-1,2.26.51,4.15,2,6,3.1,5.25,3.11,10.71,5.84,15.87,9.13,17,10.88,32.66,23.35,44.53,39.87,5.06,7,9.39,14.6,11.53,23.32C654.74,254.55,655.26,258.53,656,262.24Z"/><path class="cls-5" d="M394.53,191.41c4.84.58,8.86,3.22,12.74,6a47.22,47.22,0,0,1,8.19,6.83c1,1.19,2.16,2.51.6,3.71s-2.85-.2-3.72-1.33a32.33,32.33,0,0,0-7.5-7c-3.24-2.25-7.14-2.13-10.46-3.83-.83-.42-1.84-.51-2.64-1a1.65,1.65,0,0,1-.6-2.22C391.79,191.16,393.18,191.45,394.53,191.41Z"/><path class="cls-6" d="M467.21,201.53s24.56,15.11,35.89,39.67,14.48,57.93,14.48,57.93"/><path class="cls-6" d="M463.44,219.79s15.11,32.11,15.74,45.34"/><path class="cls-7" d="M283.21,559.09s41.81,30.84,12,82.58"/><path class="cls-7" d="M286.61,583.39s2.09,22.47-7.84,37.63"/><path class="cls-7" d="M251.33,541.32s9.93,6.79,10.45,16.2"/><path class="cls-7" d="M193.84,96.55s65.33,0,99.3,64.81"/><path class="cls-7" d="M204.81,134.18s40.77-7.84,65.85,19.34"/><path class="cls-7" d="M283.21,203.17S304.64,201.6,313,223"/><path class="cls-2" d="M394.79,64.41c12-4.7,40.5,6,47,20.38,5.56,12.23,13.33,47.3,17.51,51.48s37.11,5.23,47.56-9.93"/><path class="cls-2" d="M406.55,94.46s35.28-4.44,45.21,20.64"/><path class="cls-2" d="M417.53,114.85s33.45,3.13,40,18.29"/><path class="cls-2" d="M482.6,118.24l-21.43,19.09c17.77-15.41,0-54.11,0-54.11"/><path class="cls-2" d="M499.06,572.68s-14.67-27.58-14.91-42"/><path class="cls-2" d="M500.63,507.87s-25.15-18.78-28.78-24.55"/><path class="cls-2" d="M412.3,596.19s9.29,7.77,23.2,2.32"/><path class="cls-2" d="M437.91,583.13c1,.52,15.65,4.68,27.16-5.5"/><path class="cls-2" d="M451.5,559.09s20.69,4.27,29.16-9.88"/><path class="cls-2" d="M435.3,523c5.23,6.27,18.81,8.36,26.65-1.31s21.43-23.78,4.7-46.25c0,0,18.29,23.52,17.77,49.65s-12,48.61-27.7,60.1S406,614,405.51,616.58"/></svg>