<?xml version="1.0" standalone="no"?>
<!DOCTYPE svg PUBLIC "-//W3C//DTD SVG 20010904//EN"
 "http://www.w3.org/TR/2001/REC-SVG-20010904/DTD/svg10.dtd">
<svg version="1.0" xmlns="http://www.w3.org/2000/svg"
 width="2918.000000pt" height="2918.000000pt" viewBox="0 0 2918.000000 2918.000000"
 preserveAspectRatio="xMidYMid meet">
<metadata>
Created by potrace 1.11, written by Peter Selinger 2001-2013
</metadata>
<g transform="translate(0.000000,2918.000000) scale(0.100000,-0.100000)"
fill="#000000" stroke="none">
<path d="M16467 27925 c-54 -8 -144 -25 -200 -39 -56 -14 -137 -32 -180 -40
-91 -18 -179 -55 -221 -94 -94 -88 -85 -246 23 -412 55 -85 77 -160 62 -211
-14 -45 -67 -95 -119 -108 -55 -15 -175 -15 -271 -1 -155 24 -473 -2 -674 -55
-128 -33 -226 -76 -322 -140 -126 -84 -165 -148 -165 -274 0 -118 32 -181 111
-222 52 -26 219 -65 574 -134 506 -99 706 -159 890 -268 49 -28 109 -71 133
-94 42 -40 44 -45 39 -83 -6 -45 -27 -74 -67 -95 -51 -25 -234 -56 -388 -65
-171 -10 -226 -22 -340 -77 -155 -76 -307 -199 -434 -352 -102 -124 -128 -176
-128 -260 0 -145 87 -228 305 -291 22 -7 157 -16 300 -20 370 -11 475 -34 571
-122 90 -83 121 -190 111 -392 -3 -67 -11 -156 -18 -198 -35 -219 79 -442 273
-537 83 -40 161 -59 285 -70 164 -15 300 0 603 65 282 60 553 23 820 -111 177
-89 324 -217 422 -367 102 -154 115 -193 82 -243 -27 -42 -66 -47 -210 -30
-247 29 -442 16 -684 -46 -133 -34 -536 -169 -725 -242 -417 -163 -1326 -689
-1789 -1035 -123 -91 -156 -112 -184 -112 -29 0 -33 3 -27 18 35 83 88 248
109 343 34 152 76 485 76 602 0 434 -216 785 -594 967 -55 26 -132 58 -171 70
-97 30 -237 37 -343 17 -137 -26 -192 -74 -192 -167 0 -61 13 -87 96 -197 85
-111 137 -217 180 -365 81 -283 109 -532 101 -906 -7 -357 -40 -602 -128 -961
-96 -392 -287 -895 -395 -1042 -41 -56 -66 -73 -94 -64 -25 8 -27 17 -40 160
-29 333 -102 677 -239 1128 -103 340 -229 739 -266 847 -144 415 -453 1090
-677 1480 -388 673 -949 1353 -1408 1705 -113 87 -629 427 -780 515 -474 274
-1109 493 -1665 574 -397 58 -895 45 -1310 -34 -249 -48 -652 -166 -905 -265
-254 -100 -761 -394 -829 -481 -30 -38 -27 -82 9 -125 44 -54 160 -139 295
-217 66 -38 158 -94 205 -124 212 -138 460 -233 975 -372 281 -76 813 -186
987 -205 54 -6 257 -11 453 -11 353 0 387 -3 407 -34 14 -20 8 -63 -11 -80
-19 -18 -162 -69 -366 -131 -143 -44 -318 -127 -398 -190 -133 -105 -186 -241
-142 -364 23 -66 146 -231 235 -314 103 -97 224 -177 394 -261 330 -163 589
-242 988 -302 264 -39 864 -143 1048 -180 219 -45 779 -214 940 -284 177 -76
399 -218 476 -303 74 -82 129 -184 129 -237 0 -85 -83 -170 -167 -170 -19 0
-99 16 -179 36 -337 82 -460 100 -599 84 -90 -10 -117 -26 -148 -85 -51 -98
42 -357 204 -570 161 -211 341 -361 884 -735 162 -111 348 -243 412 -292 349
-266 535 -587 593 -1027 29 -212 19 -669 -26 -1226 -11 -137 -24 -414 -29
-615 -5 -201 -14 -403 -20 -450 -29 -251 -24 -543 26 -1360 30 -490 47 -1222
30 -1260 -8 -18 -19 -25 -41 -25 -37 0 -68 43 -83 117 -14 70 -199 707 -255
878 -87 264 -281 759 -430 1095 -420 948 -820 1645 -1535 2675 -360 517 -655
841 -1382 1517 -273 253 -430 430 -583 658 -162 241 -204 386 -162 550 47 180
140 278 306 322 88 23 269 23 374 0 124 -27 238 -37 280 -26 74 21 86 120 21
177 -50 44 -128 69 -283 92 -265 39 -441 19 -611 -66 -161 -81 -257 -185 -416
-451 -119 -199 -175 -253 -251 -239 -17 3 -76 32 -130 63 -274 156 -820 371
-1160 457 -327 82 -538 106 -1000 113 -586 9 -921 -31 -1389 -166 -543 -158
-968 -335 -1351 -563 -685 -409 -1171 -836 -1526 -1340 -87 -124 -167 -225
-231 -294 l-47 -50 37 -125 37 -124 81 0 c73 1 89 4 155 37 41 20 112 69 159
108 46 40 126 103 177 141 51 39 144 126 210 196 208 223 313 317 558 501 358
269 640 432 1010 582 105 43 251 103 326 133 169 70 268 99 484 142 488 98
965 138 1405 116 378 -19 896 -83 1025 -126 43 -14 105 -25 161 -28 76 -5 131
-18 325 -77 311 -96 705 -252 889 -352 216 -118 447 -290 728 -542 128 -114
147 -140 129 -177 -18 -35 -50 -35 -108 1 -54 33 -178 67 -357 97 -82 14 -160
18 -337 17 -211 0 -246 -3 -430 -33 -634 -104 -830 -166 -1548 -496 -235 -107
-304 -135 -339 -135 -36 0 -65 13 -187 88 -86 52 -174 116 -222 160 -93 85
-126 93 -180 44 -31 -28 -32 -30 -31 -113 1 -182 43 -272 194 -420 59 -59 108
-113 108 -121 0 -19 -36 -51 -85 -76 -65 -32 -271 -101 -395 -132 -229 -58
-286 -64 -545 -64 -258 0 -336 9 -511 60 -337 97 -585 334 -686 654 -22 70
-23 91 -23 320 0 229 2 249 23 304 33 89 73 145 170 238 199 192 392 278 621
278 252 0 455 -96 682 -320 110 -109 129 -140 129 -217 0 -37 -29 -73 -59 -73
-12 0 -34 20 -55 49 -52 71 -110 119 -185 155 -62 29 -73 31 -177 31 -107 0
-112 -1 -186 -38 -205 -101 -314 -347 -248 -560 53 -171 261 -280 474 -248
309 48 568 248 646 500 69 220 13 407 -182 616 -213 229 -516 367 -888 405
-245 25 -422 -35 -633 -215 -164 -139 -239 -257 -347 -549 -69 -186 -91 -287
-92 -406 -1 -132 12 -180 98 -360 86 -182 100 -230 85 -287 -20 -74 -75 -112
-226 -157 -60 -18 -113 -43 -158 -73 -105 -71 -130 -121 -87 -176 34 -43 53
-43 154 7 133 66 225 88 366 88 157 0 256 -27 490 -134 312 -144 421 -176 610
-185 111 -5 157 -1 417 36 162 23 350 57 425 76 130 32 163 38 202 36 17 -1
18 -7 13 -75 -3 -40 -17 -109 -30 -152 -33 -102 -111 -432 -132 -552 -25 -147
-35 -335 -25 -468 15 -199 40 -298 125 -509 165 -408 199 -558 160 -708 -18
-71 -49 -131 -133 -265 -57 -91 -63 -106 -54 -127 12 -27 49 -40 84 -32 32 9
139 75 193 120 25 22 62 64 82 95 83 129 107 136 218 71 132 -77 590 -305 665
-331 277 -96 517 -130 763 -109 533 47 907 261 1186 677 156 232 354 689 483
1114 84 275 95 522 34 716 -55 171 -160 269 -452 418 -113 58 -151 48 -206
-53 -12 -22 -24 -31 -43 -31 -30 0 -93 55 -137 117 -38 57 -165 164 -253 216
-142 83 -329 126 -407 94 -38 -16 -57 -44 -78 -114 -17 -56 -45 -86 -73 -77
-12 3 -62 30 -110 60 -49 29 -125 66 -170 81 -75 25 -95 28 -222 28 -126 0
-153 -4 -270 -34 -223 -57 -399 -128 -417 -167 -20 -43 -3 -69 62 -95 74 -29
95 -49 86 -83 -10 -38 -40 -61 -107 -80 -169 -47 -275 -196 -324 -460 -29
-153 -26 -180 20 -192 39 -10 64 6 110 72 63 90 123 122 176 94 25 -14 25 -55
-1 -119 -51 -131 -64 -208 -65 -386 0 -147 3 -180 23 -248 30 -106 112 -286
153 -337 70 -88 196 -170 309 -204 70 -21 215 -22 295 -1 218 56 457 266 521
458 67 199 -55 403 -290 485 -145 50 -284 28 -385 -63 -99 -89 -182 -262 -183
-379 -1 -50 6 -74 36 -136 50 -103 47 -160 -8 -160 -36 0 -119 56 -182 121
-71 75 -148 221 -165 314 -13 71 -6 190 17 277 76 298 401 555 864 685 242 67
405 55 619 -47 325 -156 517 -429 606 -864 64 -307 35 -620 -84 -910 -92 -226
-162 -306 -367 -422 -173 -97 -226 -119 -345 -140 -116 -21 -440 -24 -579 -6
-557 74 -1084 356 -1314 705 -100 151 -149 295 -208 617 -21 113 -23 154 -23
435 0 357 8 429 81 720 54 215 93 332 146 440 56 112 83 145 117 145 33 0 54
-20 76 -77 18 -45 79 -107 98 -100 7 2 30 55 52 118 123 348 291 556 563 693
117 59 229 91 522 150 151 30 345 73 431 95 237 61 408 83 634 84 271 0 463
-30 720 -114 282 -93 624 -286 910 -515 133 -107 431 -402 544 -539 249 -302
596 -827 856 -1295 105 -190 486 -941 565 -1115 43 -93 112 -240 153 -326 204
-423 502 -1169 627 -1569 77 -247 210 -721 210 -750 0 -14 9 -52 20 -83 80
-227 148 -661 121 -765 -23 -85 -80 -93 -168 -24 -33 26 -77 59 -97 75 -19 15
-60 58 -89 95 -30 37 -209 223 -398 413 -256 258 -357 353 -394 372 l-50 25
-34 103 c-18 57 -55 163 -82 236 -26 72 -52 157 -58 190 -5 32 -17 100 -27
151 -20 115 -156 559 -219 719 -71 178 -255 532 -337 647 -243 340 -634 599
-1203 796 -141 49 -559 170 -586 170 -26 0 -59 -35 -59 -62 0 -13 37 -81 81
-153 186 -297 308 -576 446 -1023 66 -216 68 -250 14 -303 -52 -52 -81 -51
-256 7 -216 72 -328 95 -495 101 -138 5 -151 4 -270 -25 -69 -17 -161 -33
-205 -37 -174 -14 -305 -48 -541 -143 -551 -221 -994 -522 -1372 -932 -495
-537 -669 -693 -926 -833 -125 -69 -144 -87 -131 -127 15 -46 155 -120 444
-232 362 -141 482 -168 796 -175 234 -5 416 9 653 52 280 52 797 189 1127 300
256 86 423 135 457 135 26 0 58 -27 58 -48 0 -22 -52 -116 -110 -197 -70 -98
-216 -352 -281 -489 -69 -144 -110 -275 -116 -371 -5 -76 -4 -82 21 -112 33
-40 87 -53 214 -53 216 0 483 42 734 114 280 81 650 231 868 351 150 82 551
322 710 424 416 266 620 290 947 110 341 -188 596 -505 758 -944 154 -415 138
-722 -70 -1340 -210 -627 -606 -1373 -989 -1864 -433 -556 -1058 -913 -2041
-1166 -236 -61 -371 -88 -400 -81 -31 8 -59 49 -51 74 8 24 623 634 751 744
238 204 443 334 635 403 101 36 266 75 316 75 86 0 87 50 3 128 -65 60 -99
114 -99 157 0 44 34 96 150 225 386 430 738 944 855 1248 99 258 125 568 66
787 -70 260 -235 453 -464 545 -152 60 -395 89 -521 60 -133 -30 -259 -132
-319 -257 l-32 -68 1 -175 c1 -207 14 -255 94 -343 92 -100 205 -142 364 -135
157 8 242 51 290 145 47 93 -25 278 -98 250 -8 -3 -27 -33 -42 -66 -15 -35
-44 -77 -65 -96 -33 -29 -46 -35 -86 -35 -65 0 -124 32 -200 106 -132 129
-135 229 -11 360 30 32 72 62 111 80 53 25 74 29 147 28 129 0 183 -25 291
-133 134 -134 211 -285 245 -484 28 -161 2 -351 -66 -488 -18 -34 -39 -86 -47
-113 -17 -60 -129 -275 -151 -294 -35 -27 -104 -6 -121 37 -5 14 -11 58 -14
96 -7 114 -62 200 -162 253 -43 23 -62 27 -137 27 -80 0 -90 -2 -113 -25 -60
-60 -35 -124 63 -155 103 -33 179 -102 201 -183 21 -75 -49 -340 -131 -494
-51 -94 -158 -241 -194 -264 -34 -23 -89 -21 -116 3 -35 31 -49 71 -59 166
-15 137 -31 167 -94 167 -61 0 -90 -42 -125 -181 -73 -288 -204 -611 -350
-864 -73 -126 -233 -357 -300 -435 -31 -36 -78 -94 -105 -130 -195 -260 -311
-353 -347 -275 -12 26 -12 24 67 240 81 221 113 463 81 615 -22 106 -74 205
-151 288 -71 76 -177 161 -265 210 -87 49 -247 112 -283 112 -65 0 -89 -66
-41 -111 14 -13 46 -50 71 -82 25 -32 68 -84 95 -115 189 -215 308 -467 308
-652 0 -150 -64 -349 -160 -502 -150 -238 -350 -385 -610 -445 -104 -25 -134
-27 -310 -27 -236 0 -411 28 -695 111 -434 126 -810 389 -1128 787 -166 208
-260 383 -346 641 -140 420 -131 724 29 1052 189 385 504 622 968 724 85 19
137 22 427 26 181 3 338 9 347 14 23 13 23 61 1 81 -23 20 -108 38 -180 38
-31 0 -128 9 -217 21 -133 17 -194 20 -351 16 -260 -7 -418 -43 -630 -142
-407 -189 -642 -481 -779 -967 -154 -543 -113 -1047 124 -1526 237 -478 541
-763 1102 -1031 316 -152 571 -225 988 -285 361 -52 446 -58 900 -63 444 -5
743 4 1040 33 279 27 349 18 453 -56 99 -71 159 -171 272 -454 125 -315 206
-468 335 -634 78 -101 143 -152 195 -152 40 0 101 40 142 93 167 215 197 250
230 263 71 30 149 -24 176 -123 34 -122 47 -603 27 -1008 -17 -340 -50 -735
-71 -840 -11 -55 -38 -152 -59 -215 -52 -154 -64 -248 -58 -439 6 -160 17
-210 56 -255 53 -59 196 -75 287 -32 28 13 75 45 105 70 64 54 94 65 129 45
39 -22 37 -62 -8 -260 -37 -163 -72 -402 -120 -819 -19 -158 -61 -619 -61
-662 0 -15 9 -18 60 -18 60 0 60 0 60 30 0 39 38 77 250 250 547 449 930 934
1153 1460 255 603 234 1109 -71 1710 -270 531 -661 998 -1150 1373 -222 170
-831 556 -1051 666 -45 23 -124 56 -174 72 -51 17 -102 39 -114 51 -33 31 -48
83 -34 116 14 33 30 44 126 82 157 62 368 177 554 302 81 54 371 259 661 467
96 69 274 196 395 282 121 87 280 196 355 242 172 108 480 271 635 338 460
196 984 215 1370 47 122 -53 142 -59 169 -48 34 12 50 75 43 163 -9 106 -41
164 -161 286 -116 120 -136 146 -136 179 0 17 9 27 38 39 54 22 306 13 417
-16 151 -39 328 -142 394 -228 27 -35 39 -43 65 -43 51 0 76 24 76 74 0 24 -7
65 -15 92 -21 69 -19 111 9 170 41 88 120 134 228 134 24 0 97 -11 163 -25
159 -32 259 -44 445 -52 135 -5 161 -4 192 11 68 32 74 112 22 271 -46 139
-33 206 47 248 66 35 216 0 333 -78 80 -53 259 -216 294 -268 35 -51 40 -65
58 -145 7 -34 25 -89 40 -122 27 -60 27 -60 69 -60 65 0 78 22 83 134 5 107
-7 209 -48 423 -17 84 -30 169 -30 189 0 59 22 115 60 155 44 46 96 62 158 48
114 -25 426 -215 657 -399 147 -117 592 -556 674 -665 61 -80 132 -223 156
-310 38 -140 28 -451 -21 -645 -44 -176 -201 -466 -309 -575 -206 -206 -548
-224 -746 -38 -82 77 -100 171 -48 248 49 72 110 82 204 35 75 -37 114 -38
145 -5 29 30 29 74 1 114 -39 54 -121 119 -174 138 -66 23 -211 23 -283 1
-112 -35 -152 -58 -179 -104 -14 -24 -43 -64 -65 -90 -82 -94 -85 -106 -82
-309 2 -206 14 -304 47 -392 82 -216 293 -385 547 -437 134 -28 365 -40 503
-28 270 25 508 136 640 299 59 73 84 88 113 67 12 -8 22 -20 22 -26 0 -22 -84
-247 -125 -333 -86 -181 -364 -506 -560 -656 -142 -108 -266 -171 -450 -230
-201 -64 -275 -98 -297 -137 -32 -54 -19 -121 34 -168 32 -30 313 -175 443
-229 60 -25 115 -51 122 -57 17 -14 17 -62 0 -76 -18 -15 -256 -67 -392 -86
-131 -18 -280 -32 -505 -46 -91 -6 -173 -13 -183 -16 -43 -13 -62 -117 -31
-177 27 -51 96 -135 198 -240 113 -116 120 -127 105 -161 -16 -34 -28 -38
-146 -44 -133 -6 -289 11 -498 55 -93 19 -198 37 -233 40 -59 5 -65 4 -93 -23
-36 -34 -36 -56 -4 -157 29 -91 30 -108 10 -147 -26 -50 -75 -58 -203 -31
-258 53 -609 164 -780 246 -342 164 -516 381 -530 660 -7 158 34 285 135 410
129 160 427 281 530 216 44 -28 77 -89 112 -211 43 -149 80 -176 174 -129 56
29 162 131 207 201 81 124 92 288 30 468 -27 79 -31 106 -28 165 4 84 21 119
114 242 88 117 101 130 304 313 279 251 362 345 433 485 38 76 99 260 150 450
l32 120 -3 235 c-3 260 -12 322 -63 423 -106 214 -308 337 -559 340 -120 1
-179 -21 -251 -92 -55 -56 -79 -108 -79 -174 0 -27 38 -67 64 -67 10 0 43 22
73 50 88 80 156 85 245 17 50 -39 103 -133 114 -204 14 -95 -56 -278 -145
-375 -84 -92 -212 -146 -399 -169 -208 -26 -307 32 -381 226 -58 149 -120 222
-236 277 -92 43 -255 74 -306 59 -76 -23 -91 -87 -46 -189 42 -93 80 -291 73
-376 -9 -115 -46 -177 -174 -289 -59 -51 -159 -140 -222 -196 -63 -57 -167
-142 -230 -189 -490 -367 -726 -696 -806 -1127 -28 -151 -26 -442 5 -585 67
-314 200 -542 491 -844 349 -363 745 -604 1355 -825 80 -29 150 -81 177 -133
21 -40 23 -56 24 -233 1 -151 4 -201 18 -245 65 -202 222 -378 433 -484 124
-62 169 -48 213 64 109 280 352 507 607 566 36 8 124 16 196 18 122 2 136 4
187 30 30 16 77 53 105 84 251 275 352 356 690 552 245 141 345 203 535 331
376 253 620 470 856 759 80 99 92 109 120 110 31 0 39 -14 91 -147 169 -438
188 -515 179 -693 -4 -63 -9 -136 -12 -161 -7 -57 11 -79 65 -79 71 0 227 113
308 224 94 130 118 129 259 -3 131 -125 267 -179 419 -168 149 11 280 74 404
197 223 220 363 503 491 992 47 179 50 220 18 242 -52 36 -72 17 -194 -189
-141 -238 -261 -344 -434 -385 -171 -41 -418 19 -594 144 -125 89 -247 247
-300 388 -33 87 -48 157 -91 418 -68 420 -85 625 -85 1035 0 404 20 537 84
566 56 26 96 -4 237 -175 55 -66 108 -131 119 -144 23 -28 44 -28 71 -1 14 14
19 28 15 42 -4 12 -9 78 -13 147 -6 124 -6 126 20 155 l25 30 254 8 c322 9
372 23 494 128 26 22 93 71 148 109 124 83 197 159 239 247 40 87 50 218 22
319 -60 221 -293 372 -517 335 -272 -45 -451 -348 -369 -622 31 -104 32 -117
17 -154 -35 -82 -221 -98 -391 -34 -139 52 -319 207 -419 361 -114 177 -137
244 -147 443 -8 170 -21 221 -79 317 -41 68 -49 112 -30 149 6 10 43 40 83 66
42 27 126 101 202 177 273 274 373 462 363 682 -3 78 -8 101 -36 157 -65 131
-190 233 -316 257 -110 21 -230 -22 -313 -113 -75 -81 -127 -212 -126 -317 0
-92 29 -148 123 -241 104 -102 108 -109 70 -152 -36 -42 -128 -91 -205 -112
-88 -23 -218 -19 -362 10 -342 70 -673 220 -1120 511 -162 105 -163 125 -11
247 299 240 411 444 395 716 -3 53 -15 137 -26 186 -11 50 -21 105 -21 123 0
39 -38 82 -72 82 -38 0 -63 -25 -106 -102 -50 -91 -139 -211 -227 -306 -140
-151 -345 -276 -535 -327 -199 -52 -367 -50 -815 10 -422 56 -590 68 -970 69
-431 1 -625 -18 -1100 -110 -346 -67 -544 -123 -875 -246 -421 -157 -542 -219
-934 -481 -132 -88 -250 -162 -262 -165 -11 -2 -26 4 -34 13 -11 13 -8 33 23
133 42 136 67 234 136 537 119 526 170 877 191 1330 12 271 12 1811 0 2220
-19 606 -22 1164 -11 1605 16 649 31 860 97 1420 83 708 117 891 248 1348 182
632 312 952 529 1300 210 338 455 583 744 743 198 109 354 152 548 152 341 -1
597 -129 991 -500 140 -132 265 -233 424 -344 277 -194 469 -241 612 -150 87
56 100 131 73 426 -9 99 -19 239 -22 312 l-6 132 32 32 c29 29 36 31 81 27 41
-4 62 -15 124 -62 207 -159 385 -387 506 -652 114 -246 185 -478 340 -1109
204 -826 316 -1096 584 -1399 86 -98 238 -221 326 -264 65 -32 83 -37 145 -37
85 1 131 22 202 93 93 93 154 205 228 417 21 61 45 117 52 126 34 40 123 27
148 -21 9 -18 30 -145 51 -312 49 -394 139 -834 217 -1064 48 -140 83 -213
193 -401 217 -371 284 -574 284 -855 0 -139 7 -166 58 -221 51 -54 141 -56
190 -4 39 41 102 192 147 351 236 835 308 1333 309 2151 1 355 -7 494 -40 730
-98 711 -373 1331 -784 1769 -232 248 -740 606 -1149 811 -117 58 -218 104
-771 347 -113 49 -215 96 -228 104 -12 8 -91 33 -175 54 -102 27 -181 54 -242
85 -50 25 -99 45 -109 45 -10 0 -94 24 -186 54 -318 104 -688 194 -872 212
-97 10 -89 30 22 57 205 51 442 66 755 48 277 -16 355 -25 575 -66 102 -19
237 -41 302 -50 184 -25 345 -75 732 -229 461 -184 523 -211 785 -353 338
-182 408 -224 691 -414 463 -309 656 -464 946 -753 239 -240 404 -437 561
-671 106 -158 144 -225 269 -472 127 -252 190 -356 293 -485 68 -86 86 -94
128 -52 20 20 24 31 19 56 -10 49 -170 533 -211 638 -199 507 -592 1060 -1056
1486 -267 245 -301 273 -444 378 -843 616 -1723 1016 -2645 1200 -344 69 -618
101 -998 116 -141 6 -266 12 -277 14 -38 5 87 55 217 86 311 74 687 124 1223
162 265 19 924 16 1225 -6 419 -29 499 -42 1010 -166 179 -43 398 -95 487
-115 170 -37 333 -83 573 -160 80 -26 205 -64 278 -85 73 -21 144 -46 157 -54
54 -35 42 -90 -38 -183 -94 -109 -129 -200 -129 -339 -1 -261 149 -457 415
-544 96 -31 98 -39 54 -187 -48 -161 -57 -209 -57 -315 0 -108 19 -190 66
-278 114 -217 313 -310 664 -310 212 0 317 38 469 170 50 43 99 81 110 85 41
13 107 -39 331 -259 363 -357 651 -617 930 -842 128 -103 258 -232 354 -352
46 -58 131 -187 289 -442 57 -92 194 -378 265 -555 107 -268 174 -499 218
-760 24 -140 25 -455 1 -582 -67 -359 -206 -615 -491 -910 -100 -104 -145
-141 -267 -223 -327 -218 -533 -307 -786 -341 -185 -25 -370 23 -540 139 -72
49 -169 149 -217 225 -48 75 -156 306 -163 350 -8 49 26 121 67 142 42 22 71
22 155 -1 46 -12 106 -18 175 -19 95 0 110 3 162 28 131 64 277 272 362 515
53 152 69 255 63 392 -7 151 -30 229 -122 409 -72 140 -75 150 -85 245 -14
131 -63 377 -89 447 -50 133 -170 266 -288 321 -79 37 -198 49 -292 28 -151
-32 -294 -140 -352 -264 -56 -119 -51 -272 11 -370 85 -134 154 -82 171 128
10 131 28 184 74 225 57 50 133 63 218 37 63 -19 102 -49 134 -103 34 -59 33
-105 -6 -210 -76 -205 -147 -303 -314 -435 -346 -275 -452 -379 -519 -514 -43
-87 -43 -89 -43 -194 0 -102 1 -109 37 -182 22 -44 65 -106 104 -149 109 -121
107 -116 115 -394 7 -240 16 -326 46 -420 74 -233 280 -447 526 -545 154 -61
237 -74 487 -75 262 0 357 15 590 91 151 49 431 183 555 264 363 238 620 566
759 969 89 257 105 363 117 801 5 195 16 413 24 483 37 317 106 532 245 762
72 119 105 195 139 326 75 280 101 475 101 749 0 364 -63 649 -219 990 -187
411 -426 729 -791 1050 -294 259 -399 333 -549 386 -140 49 -180 70 -187 99
-11 43 3 81 59 163 69 101 91 178 85 294 -6 118 -43 194 -142 293 -134 134
-284 214 -486 258 -78 17 -130 21 -295 21 -221 0 -294 -8 -622 -74 -108 -22
-208 -40 -223 -40 -38 0 -70 26 -70 58 0 43 91 126 154 141 26 7 80 28 120 47
39 20 109 52 156 72 108 46 146 70 191 119 51 56 63 99 57 205 -5 77 -11 100
-42 163 -44 90 -101 144 -269 257 -367 245 -675 307 -927 185 -79 -38 -201
-156 -248 -237 -132 -233 -154 -585 -72 -1124 24 -155 21 -192 -15 -226 -55
-51 -198 -18 -572 134 -356 144 -452 174 -813 260 -359 85 -514 116 -720 146
-80 12 -257 43 -395 70 -137 26 -272 51 -300 55 -107 14 -135 33 -135 93 0 31
21 55 85 93 78 46 233 179 340 291 186 194 315 368 520 703 269 441 340 542
458 652 108 100 238 180 367 225 70 24 217 48 296 48 113 0 267 66 342 145 28
30 32 42 32 88 0 64 -31 116 -85 142 -62 29 -208 48 -322 41 -99 -6 -167 -18
-483 -90 -249 -56 -507 -74 -588 -40 -75 31 -128 107 -170 246 -25 78 -43 117
-85 176 -84 117 -175 109 -336 -32 -93 -81 -153 -156 -231 -286 -96 -161 -180
-240 -257 -240 -67 0 -97 50 -141 235 -43 178 -51 233 -62 435 -28 498 -67
737 -164 1015 -49 140 -74 175 -125 175 -44 0 -78 -35 -121 -123 -49 -103 -73
-191 -105 -387 -14 -85 -36 -202 -50 -260 -13 -58 -27 -122 -30 -143 -8 -50
-36 -77 -81 -77 -52 0 -86 39 -107 120 -45 181 -51 266 -52 740 0 435 -2 460
-23 560 -13 57 -39 147 -59 200 -97 261 -206 387 -318 366 -42 -8 -138 -93
-165 -146 -26 -50 -89 -334 -99 -440 -4 -47 -4 -114 0 -150 4 -36 11 -93 15
-127 6 -57 4 -66 -19 -101 -29 -45 -74 -67 -114 -58 -42 11 -142 121 -198 220
-150 263 -238 386 -389 543 -304 317 -620 491 -1031 570 -114 22 -584 27 -718
8z m3140 -7164 c302 -203 673 -539 918 -835 247 -296 416 -569 554 -892 238
-560 436 -1347 536 -2138 23 -181 24 -201 10 -223 -10 -15 -25 -23 -43 -23
-51 0 -63 18 -73 111 -47 433 -156 1000 -275 1439 -221 810 -479 1303 -948
1810 -219 237 -530 505 -788 679 -72 47 -78 54 -78 86 0 34 27 65 57 65 7 0
65 -36 130 -79z m-256 -691 c12 0 66 -115 181 -380 271 -627 448 -1149 494
-1463 14 -97 14 -110 0 -131 -18 -29 -47 -37 -77 -22 -26 13 -33 34 -48 156
-36 281 -245 879 -537 1538 -57 129 -104 241 -104 251 0 33 39 65 68 55 8 -2
18 -4 23 -4z m-2196 -12294 c47 -47 43 -109 -16 -252 -84 -202 -275 -406 -524
-561 -49 -31 -223 -123 -385 -204 -452 -226 -610 -328 -795 -514 -102 -102
-198 -231 -304 -408 -26 -43 -48 -57 -88 -57 -72 0 -87 44 -58 179 47 224 149
415 341 641 227 268 429 425 834 650 204 114 266 152 639 389 216 136 261 161
293 161 28 0 46 -7 63 -24z"/>
</g>
</svg>
